<svg width="232" height="55" viewBox="0 0 232 55" fill="none" xmlns="http://www.w3.org/2000/svg">
<g clip-path="url(#clip0_201_18)">
<path d="M28.6353 3.39283C30.8925 -0.849423 36.9719 -0.849419 39.2291 3.39284L49.5919 22.8692C51.7182 26.8657 48.8219 31.6875 44.2949 31.6875H23.5694C19.0425 31.6875 16.1462 26.8657 18.2725 22.8692L28.6353 3.39283Z" fill="#8E7BDA"/>
<path d="M51.3383 34.5305C49.0924 38.7788 43.013 38.795 40.7445 34.5587L30.33 15.11C28.1929 11.1192 31.0765 6.28966 35.6034 6.27761L56.3288 6.22245C60.8557 6.2104 63.7649 11.0245 61.6492 15.0266L51.3383 34.5305Z" fill="#631DFA"/>
<path d="M85.2378 20.71V25.003H98.7108V28H81.6468V10.531H98.6838V13.528H85.2378V17.875H96.2538V20.71H85.2378ZM123.701 10.531H128.075L119.813 20.17L119.705 20.278L113.576 28H109.202L117.707 17.875L117.788 17.794L123.701 10.531ZM113.846 10.531L119.678 17.848L119.732 17.929L128.156 28H123.593L117.545 20.17L117.464 20.116L109.472 10.531H113.846ZM148.36 28.351C146.038 28.351 144.049 27.991 142.393 27.271C140.755 26.533 139.495 25.489 138.613 24.139C137.749 22.789 137.317 21.169 137.317 19.279C137.317 17.371 137.749 15.742 138.613 14.392C139.495 13.042 140.755 12.007 142.393 11.287C144.049 10.549 146.038 10.18 148.36 10.18C150.7 10.18 152.689 10.549 154.327 11.287C155.965 12.007 157.216 13.042 158.08 14.392C158.962 15.742 159.403 17.371 159.403 19.279C159.403 21.169 158.962 22.789 158.08 24.139C157.216 25.489 155.965 26.533 154.327 27.271C152.689 27.991 150.7 28.351 148.36 28.351ZM148.36 25.246C149.8 25.246 151.06 25.03 152.14 24.598C153.238 24.166 154.093 23.509 154.705 22.627C155.335 21.745 155.65 20.629 155.65 19.279C155.65 17.929 155.335 16.813 154.705 15.931C154.093 15.049 153.238 14.392 152.14 13.96C151.06 13.51 149.8 13.285 148.36 13.285C146.938 13.285 145.669 13.51 144.553 13.96C143.437 14.392 142.564 15.049 141.934 15.931C141.304 16.813 140.989 17.929 140.989 19.279C140.989 20.629 141.304 21.745 141.934 22.627C142.564 23.509 143.437 24.166 144.553 24.598C145.669 25.03 146.938 25.246 148.36 25.246ZM180.728 10.531C182.69 10.531 184.328 10.765 185.642 11.233C186.956 11.701 188 12.34 188.774 13.15C189.566 13.942 190.124 14.86 190.448 15.904C190.79 16.948 190.961 18.046 190.961 19.198C190.961 20.35 190.772 21.457 190.394 22.519C190.034 23.581 189.449 24.526 188.639 25.354C187.847 26.164 186.794 26.812 185.48 27.298C184.184 27.766 182.6 28 180.728 28H170.738V10.531H180.728ZM174.329 24.922H180.647C181.943 24.922 183.014 24.769 183.86 24.463C184.724 24.139 185.408 23.707 185.912 23.167C186.416 22.627 186.776 22.015 186.992 21.331C187.208 20.647 187.316 19.936 187.316 19.198C187.316 18.46 187.208 17.758 186.992 17.092C186.776 16.426 186.416 15.832 185.912 15.31C185.408 14.788 184.724 14.374 183.86 14.068C183.014 13.762 181.943 13.609 180.647 13.609H174.329V24.922ZM204.156 24.193V21.196H215.712V24.193H204.156ZM199.809 28L208.017 10.531H211.905L220.194 28H216.279L209.097 12.259H210.825L203.697 28H199.809Z" fill="white"/>
</g>
<g clip-path="url(#clip1_201_18)">
<path d="M172.86 51V39.95H177.212C178.357 39.95 179.246 40.2107 179.881 40.732C180.527 41.2533 180.85 41.9787 180.85 42.908C180.85 43.486 180.731 43.9563 180.493 44.319C180.266 44.6817 179.943 44.9537 179.524 45.135C179.105 45.3163 178.612 45.4353 178.045 45.492L178.079 45.39C178.498 45.4127 178.895 45.4693 179.269 45.56C179.643 45.6393 179.972 45.7697 180.255 45.951C180.55 46.1323 180.782 46.3817 180.952 46.699C181.122 47.0163 181.207 47.4243 181.207 47.923C181.207 48.5917 181.06 49.147 180.765 49.589C180.47 50.031 180.057 50.371 179.524 50.609C179.003 50.8357 178.402 50.966 177.722 51H172.86ZM174.22 49.725H177.382C178.153 49.725 178.753 49.5833 179.184 49.3C179.626 49.0053 179.847 48.5463 179.847 47.923C179.847 47.4243 179.705 47.0503 179.422 46.801C179.15 46.5517 178.799 46.3873 178.368 46.308C177.937 46.2173 177.495 46.172 177.042 46.172H174.22V49.725ZM174.22 44.897H177.042C177.813 44.897 178.413 44.7327 178.844 44.404C179.286 44.064 179.507 43.5823 179.507 42.959C179.507 42.347 179.286 41.905 178.844 41.633C178.413 41.361 177.869 41.225 177.212 41.225H174.22V44.897ZM189.626 46.138V49.725H196.103V51H188.266V39.95H196.086V41.225H189.626V44.863H194.913V46.138H189.626ZM202.301 39.95H211.141V41.225H202.301V39.95ZM206.041 41.089H207.401V51H206.041V41.089ZM217.894 48.11V46.835H223.198V48.11H217.894ZM215.65 51L219.849 39.95H221.277L225.51 51H224.048L220.359 41.004H220.767L217.078 51H215.65Z" fill="white"/>
</g>
<defs>
<clipPath id="clip0_201_18">
<rect width="230" height="38" fill="white" transform="translate(1)"/>
</clipPath>
<clipPath id="clip1_201_18">
<rect width="221" height="14" fill="white" transform="translate(5.5 38)"/>
</clipPath>
</defs>
</svg>
