<svg width="211" height="59" viewBox="0 0 211 59" fill="none" xmlns="http://www.w3.org/2000/svg">
<g clip-path="url(#clip0_8_122)">
<path d="M18.0853 13.8928C20.3425 9.65058 26.4219 9.65058 28.6791 13.8928L39.0419 33.3692C41.1682 37.3657 38.2719 42.1875 33.745 42.1875H13.0194C8.49251 42.1875 5.59617 37.3657 7.72254 33.3692L18.0853 13.8928Z" fill="#A48EC0"/>
<path d="M40.7883 45.0305C38.5424 49.2788 32.463 49.295 30.1945 45.0587L19.78 25.61C17.643 21.6192 20.5265 16.7897 25.0534 16.7776L45.7788 16.7224C50.3057 16.7104 53.2149 21.5245 51.0992 25.5266L40.7883 45.0305Z" fill="#631DFA"/>
<path d="M74.6878 31.21V35.503H88.1608V38.5H71.0968V21.031H88.1338V24.028H74.6878V28.375H85.7038V31.21H74.6878ZM113.151 21.031H117.525L109.263 30.67L109.155 30.778L103.026 38.5H98.6518L107.157 28.375L107.238 28.294L113.151 21.031ZM103.296 21.031L109.128 28.348L109.182 28.429L117.606 38.5H113.043L106.995 30.67L106.914 30.616L98.9218 21.031H103.296ZM137.81 38.851C135.488 38.851 133.499 38.491 131.843 37.771C130.205 37.033 128.945 35.989 128.063 34.639C127.199 33.289 126.767 31.669 126.767 29.779C126.767 27.871 127.199 26.242 128.063 24.892C128.945 23.542 130.205 22.507 131.843 21.787C133.499 21.049 135.488 20.68 137.81 20.68C140.15 20.68 142.139 21.049 143.777 21.787C145.415 22.507 146.666 23.542 147.53 24.892C148.412 26.242 148.853 27.871 148.853 29.779C148.853 31.669 148.412 33.289 147.53 34.639C146.666 35.989 145.415 37.033 143.777 37.771C142.139 38.491 140.15 38.851 137.81 38.851ZM137.81 35.746C139.25 35.746 140.51 35.53 141.59 35.098C142.688 34.666 143.543 34.009 144.155 33.127C144.785 32.245 145.1 31.129 145.1 29.779C145.1 28.429 144.785 27.313 144.155 26.431C143.543 25.549 142.688 24.892 141.59 24.46C140.51 24.01 139.25 23.785 137.81 23.785C136.388 23.785 135.119 24.01 134.003 24.46C132.887 24.892 132.014 25.549 131.384 26.431C130.754 27.313 130.439 28.429 130.439 29.779C130.439 31.129 130.754 32.245 131.384 33.127C132.014 34.009 132.887 34.666 134.003 35.098C135.119 35.53 136.388 35.746 137.81 35.746ZM170.178 21.031C172.14 21.031 173.778 21.265 175.092 21.733C176.406 22.201 177.45 22.84 178.224 23.65C179.016 24.442 179.574 25.36 179.898 26.404C180.24 27.448 180.411 28.546 180.411 29.698C180.411 30.85 180.222 31.957 179.844 33.019C179.484 34.081 178.899 35.026 178.089 35.854C177.297 36.664 176.244 37.312 174.93 37.798C173.634 38.266 172.05 38.5 170.178 38.5H160.188V21.031H170.178ZM163.779 35.422H170.097C171.393 35.422 172.464 35.269 173.31 34.963C174.174 34.639 174.858 34.207 175.362 33.667C175.866 33.127 176.226 32.515 176.442 31.831C176.658 31.147 176.766 30.436 176.766 29.698C176.766 28.96 176.658 28.258 176.442 27.592C176.226 26.926 175.866 26.332 175.362 25.81C174.858 25.288 174.174 24.874 173.31 24.568C172.464 24.262 171.393 24.109 170.097 24.109H163.779V35.422ZM193.606 34.693V31.696H205.162V34.693H193.606ZM189.259 38.5L197.467 21.031H201.355L209.644 38.5H205.729L198.547 22.759H200.275L193.147 38.5H189.259Z" fill="white"/>
</g>
<defs>
<clipPath id="clip0_8_122">
<rect width="210.9" height="59" fill="white"/>
</clipPath>
</defs>
</svg>

